<svg width="189" height="32" viewBox="0 0 189 32" fill="none" xmlns="http://www.w3.org/2000/svg">
<path fill-rule="evenodd" clip-rule="evenodd" d="M179.324 26.2372C183.672 26.2372 188.038 24.3197 189 18.5377H184.534C183.696 21.0806 181.755 22.2016 179.324 22.2016C175.843 22.2016 173.182 19.5407 173.182 15.7765C173.182 11.9947 175.843 9.35736 179.324 9.35736C181.755 9.35736 183.696 10.4725 184.534 12.9977H189C188.038 7.23927 183.625 5.32178 179.324 5.32178C172.97 5.32178 168.58 9.61696 168.58 15.7765C168.58 21.942 172.97 26.2372 179.324 26.2372Z" fill="#00A0FF"/>
<path fill-rule="evenodd" clip-rule="evenodd" d="M149.818 25.4466H166.332V21.6116H154.467V17.4049H164.804V14.042H154.467V9.92377H166.332V6.11238H149.818V25.4466Z" fill="#00A0FF"/>
<path fill-rule="evenodd" clip-rule="evenodd" d="M146.709 6.11238H127.339V10.0064H134.679V25.4525H139.352V10.0064H146.709V6.11238Z" fill="#00A0FF"/>
<path fill-rule="evenodd" clip-rule="evenodd" d="M116.047 22.1072C112.619 22.1072 109.97 19.582 109.97 15.7825C109.97 11.9829 112.619 9.45177 116.047 9.45177C119.504 9.45177 122.13 11.9829 122.13 15.7825C122.13 19.582 119.504 22.1072 116.047 22.1072ZM116.047 26.0838C122.377 26.0838 126.684 21.8535 126.684 15.7825C126.684 9.71137 122.377 5.47518 116.047 5.47518C109.74 5.47518 105.439 9.71137 105.439 15.7825C105.439 21.8535 109.74 26.0838 116.047 26.0838Z" fill="#00A0FF"/>
<path fill-rule="evenodd" clip-rule="evenodd" d="M105.657 6.11238H100.778L95.621 14.7677H95.1372L89.9806 6.11238H85.0954L93.0663 19.2339V25.4525H97.6683V19.2575L105.657 6.11238Z" fill="#00A0FF"/>
<path fill-rule="evenodd" clip-rule="evenodd" d="M70.5166 9.95327H75.8384C78.1629 9.95327 79.4492 11.0094 79.4492 13.0567C79.4492 15.1099 78.1629 16.166 75.8384 16.166H70.5166V9.95327ZM84.4877 25.4525L80.7176 18.7619C82.6941 17.6822 84.0039 15.7294 84.0039 13.039C84.0039 8.52548 81.2663 6.11238 76.0921 6.11238H65.9441V25.4525H70.5166V19.6764H76.7588L79.9329 25.4525H84.4877Z" fill="#00A0FF"/>
<path fill-rule="evenodd" clip-rule="evenodd" d="M53.1293 26.0838C57.4127 26.0838 61.7138 24.2017 62.6578 18.4964H58.2623C57.4363 21.0039 55.5247 22.1072 53.1293 22.1072C49.7014 22.1072 47.0759 19.4876 47.0759 15.7825C47.0759 12.0537 49.7014 9.45177 53.1293 9.45177C55.5247 9.45177 57.4363 10.5551 58.2623 13.039H62.6578C61.7138 7.36318 57.3655 5.47518 53.1293 5.47518C46.8635 5.47518 42.5448 9.71137 42.5448 15.7825C42.5448 21.8535 46.8635 26.0838 53.1293 26.0838Z" fill="#00A0FF"/>
<path fill-rule="evenodd" clip-rule="evenodd" d="M31.3702 15.7824C31.3702 17.7766 31.0044 19.6823 30.3318 21.4405L20.585 15.7824H31.3702ZM27.8774 25.7062C25.4879 28.6739 22.0541 30.7507 18.1365 31.3702V20.0481L27.8774 25.7062ZM13.2337 31.3702C9.31607 30.7507 5.88228 28.6739 3.49279 25.7062L13.2337 20.0481V31.3702ZM1.0384 21.4405C0.365799 19.6882 0 17.7766 0 15.7824H10.7852L1.0384 21.4405Z" fill="#00A0FF"/>
<path fill-rule="evenodd" clip-rule="evenodd" d="M15.6881 0C16.5199 0 17.3341 0.0648998 18.1365 0.194699V11.5109L27.8774 5.85278C28.904 7.12718 29.7359 8.56087 30.3318 10.1185L20.585 15.7824H10.7852L1.0384 10.1185C1.6343 8.56087 2.46619 7.12718 3.49279 5.85278L13.2337 11.5109V0.194699C14.0361 0.0648998 14.8503 0 15.6822 0H15.6881Z" fill="#00A0FF"/>
</svg>
